{"title":"Call Me Mrs.Miracle 2010 DvdRip H264","uid":6831365,"size":561400269,"categoryP":"video","categoryS":"movies","magnet":"?xt=urn:btih:5b9d72f210cbbf535697389db6723f4cf691ef1a&amp;dn=Call+Me+Mrs.Miracle+2010+DvdRip+H264&amp;tr=udp%3A%2F%2Ftracker.openbittorrent.com%3A80&amp;tr=udp%3A%2F%2Fopen.demonii.com%3A1337&amp;tr=udp%3A%2F%2Ftracker.coppersurfer.tk%3A6969&amp;tr=udp%3A%2F%2Fexodus.desync.com%3A6969","seeders":1,"leechers":0,"uploader":"6thstreet","files":-1,"time":1321884503,"description":" &lt;a href=&quot;http://www.imdb.com/title/tt1708459/&quot; rel=&quot;nofollow&quot; target=&quot;_NEW&quot;&gt;http://www.imdb.com/title/tt1708459/&lt;/a&gt;\n\nCall Me Mrs.Miracle 2010 DvdRip H264\nDrama | Fantasy  \n\nRunning Time\t88 minutes\nCompletion Year\t2010\nRelease Date\tOctober 11, 2011\n\nPosing as an unassuming toy department clerk, Mrs. Miracle (Doris Roberts) gets to work at making Christmas meaningful for the residents of a New York-based mom-and-pop store that has fallen on hard times.\n\n\n\n\n\n\n\n\n\nDirector: Michael Scott\nWriters: Nancey Silvers (teleplay), Debbie Macomber (book)\nStars: Doris Roberts, Jewel Staite and Eric Johnson\n\n\nCall Me Mrs.Miracle 2010 DvdRip H264.AVI\n\nFormat                                   : AVI\nFormat/Info                              : Audio Video Interleave\nFile size                                : 534 MiB\nDuration                                 : 1h 27mn\nOverall bit rate                         : 849 Kbps\n\nVideo\nID                                       : 0\nFormat                                   : AVC\nFormat/Info                              : Advanced Video Codec\nFormat profile                           : &lt;a class=&quot;__cf_email__&quot; href=&quot;/cdn-cgi/l/email-protection&quot; data-cfemail=&quot;f6bb979f98b6bac2d8c6&quot;&gt;[email&amp;#160;protected]&lt;/a&gt;&lt;script cf-hash='f9e31' type=&quot;text/javascript&quot;&gt;\n/* &lt;![CDATA[ */!function(){try{var t=&quot;currentScript&quot;in document?document.currentScript:function(){for(var t=document.getElementsByTagName(&quot;script&quot;),e=t.length;e--;)if(t[e].getAttribute(&quot;cf-hash&quot;))return t[e]}();if(t&amp;&amp;t.previousSibling){var e,r,n,i,c=t.previousSibling,a=c.getAttribute(&quot;data-cfemail&quot;);if(a){for(e=&quot;&quot;,r=parseInt(a.substr(0,2),16),n=2;a.length-n;n+=2)i=parseInt(a.substr(n,2),16)^r,e+=String.fromCharCode(i);e=document.createTextNode(e),c.parentNode.replaceChild(e,c)}}}catch(u){}}();/* ]]&gt; */&lt;/script&gt;\nFormat settings, CABAC                   : Yes\nFormat settings, ReFrames                : 2 frames\nCodec ID                                 : H264\nDuration                                 : 1h 27mn\nBit rate                                 : 41.1 Kbps\nWidth                                    : 720 pixels\nHeight                                   : 400 pixels\nDisplay aspect ratio                     : 16:9\nFrame rate                               : 29.970 fps\nColor space                              : YUV\nChroma subsampling                       : 4:2:0\nBit depth                                : 8 bits\nScan type                                : Progressive\nBits/(Pixel*Frame)                       : 0.005\nStream size                              : 25.8 MiB (5%)\n\nAudio\nID                                       : 1\nFormat                                   : MPEG Audio\nCodec ID                                 : 55\nCodec ID/Hint                            : MP3\nDuration                                 : 1h 27mn\nBit rate                                 : 192 Kbps\nChannel(s)                               : 2 channels\nSampling rate                            : 48.0 KHz\nCompression mode                         : Lossy\nStream size                              : 121 MiB (23%)\nAlignment                                : Aligned on interleaves\n\n\n\n","torrent":{"xt":"urn:btih:5b9d72f210cbbf535697389db6723f4cf691ef1a","amp;dn":"Call+Me+Mrs.Miracle+2010+DvdRip+H264","amp;tr":["udp%3A%2F%2Ftracker.openbittorrent.com%3A80","udp%3A%2F%2Fopen.demonii.com%3A1337","udp%3A%2F%2Ftracker.coppersurfer.tk%3A6969","udp%3A%2F%2Fexodus.desync.com%3A6969"],"infoHash":"5b9d72f210cbbf535697389db6723f4cf691ef1a","infoHashBuffer":{"type":"Buffer","data":[91,157,114,242,16,203,191,83,86,151,56,157,182,114,63,76,246,145,239,26]},"announce":[],"urlList":[]}}